<svg width="40" height="40" viewBox="0 0 40 40" fill="none" xmlns="http://www.w3.org/2000/svg">
<path d="M13.2629 32.5625C15.6379 33.8125 17.8879 34.4375 20.0129 34.4375C22.1379 34.4375 24.3567 33.8125 26.6692 32.5625C29.0442 31.3125 30.8254 29.7812 32.0129 27.9688C31.9504 26.2188 30.5442 24.75 27.7942 23.5625C25.0442 22.375 22.4504 21.7812 20.0129 21.7812C17.5754 21.7812 14.9817 22.375 12.2317 23.5625C9.48166 24.6875 8.07541 26.1562 8.01291 27.9688C9.20041 29.7812 10.9504 31.3125 13.2629 32.5625ZM24.2317 7.8125C23.0442 6.625 21.6379 6.03125 20.0129 6.03125C18.3879 6.03125 16.9817 6.625 15.7942 7.8125C14.6067 9 14.0129 10.4063 14.0129 12.0312C14.0129 13.6562 14.6067 15.0625 15.7942 16.25C16.9817 17.4375 18.3879 18.0312 20.0129 18.0312C21.6379 18.0312 23.0442 17.4375 24.2317 16.25C25.4192 15.0625 26.0129 13.6562 26.0129 12.0312C26.0129 10.4063 25.4192 9 24.2317 7.8125ZM5.85666 5.9375C9.79416 2 14.5129 0.03125 20.0129 0.03125C25.5129 0.03125 30.2004 2 34.0754 5.9375C38.0129 9.8125 39.9817 14.5 39.9817 20C39.9817 25.5 38.0129 30.2188 34.0754 34.1562C30.2004 38.0312 25.5129 39.9688 20.0129 39.9688C14.5129 39.9688 9.79416 38.0312 5.85666 34.1562C1.98166 30.2188 0.0441647 25.5 0.0441647 20C0.0441647 14.5 1.98166 9.8125 5.85666 5.9375Z" fill="url(#paint0_linear_21_7)"/>
<defs>
<linearGradient id="paint0_linear_21_7" x1="20.0129" y1="2" x2="20.0129" y2="38.57" gradientUnits="userSpaceOnUse">
<stop stop-color="#F27A54"/>
<stop offset="1" stop-color="#E72F7C"/>
</linearGradient>
</defs>
</svg>
