<svg width="21" height="21" viewBox="0 0 21 21" fill="none" xmlns="http://www.w3.org/2000/svg">
<path d="M14.0772 18.514C13.0191 18.9559 11.8673 19.2104 10.6486 19.2104C8.51912 19.2104 6.57716 18.447 5.05037 17.2015C5.05037 17.2015 5.17091 17.2818 5.25127 17.3488C6.93877 13.6791 12.1486 11.8577 12.1486 11.8577C12.162 11.8577 12.1888 11.8443 12.2022 11.8443C13.4343 15.0586 13.9432 17.7372 14.0772 18.514ZM11.5995 10.3845C11.4923 10.4247 11.3718 10.4515 11.2513 10.4916C11.2513 10.4916 6.5102 12.0184 4.11287 16.2907C2.72002 14.7372 1.86287 12.6747 1.86287 10.4247C1.86287 10.3309 1.86287 10.2372 1.87627 10.1434C2.02359 10.1434 6.36287 10.2506 10.8897 8.89788C11.1441 9.39341 11.3852 9.88895 11.5995 10.3845ZM10.1664 7.5452C5.9477 8.65681 2.27805 8.61663 2.05037 8.61663C2.62627 5.89788 4.4477 3.63449 6.89859 2.4827C7.01912 2.64341 8.63966 4.83984 10.1664 7.5452ZM19.3272 11.8175C18.9254 14.2684 17.5325 16.3845 15.5638 17.7104C15.47 17.1881 15.0013 14.6032 13.8495 11.4291C16.6888 10.9872 19.1397 11.764 19.3272 11.8175ZM8.54591 1.89341C8.53252 1.89341 8.51912 1.90681 8.51912 1.90681C8.53252 1.89341 8.53252 1.89341 8.54591 1.89341ZM16.4477 3.83538C16.4209 3.87556 15.1754 5.77734 11.8673 7.00949C10.3673 4.25056 8.70662 2.06752 8.5727 1.89341C9.24234 1.7327 9.93877 1.63895 10.6486 1.63895C12.8718 1.63895 14.9075 2.46931 16.4477 3.83538ZM19.4343 10.3309C19.3272 10.3175 16.3406 9.66127 13.3138 10.0497C13.2468 9.90234 13.1932 9.74163 13.1263 9.59431C12.9388 9.16574 12.7379 8.73716 12.537 8.32199C16.0057 6.90234 17.412 4.86663 17.4388 4.83984C18.6709 6.33984 19.4075 8.25502 19.4343 10.3309ZM20.9343 10.4247C20.9343 4.74609 16.3272 0.138951 10.6486 0.138951C4.97002 0.138951 0.362875 4.74609 0.362875 10.4247C0.362875 16.1032 4.97002 20.7104 10.6486 20.7104C16.3272 20.7104 20.9343 16.1032 20.9343 10.4247Z" fill="url(#paint0_linear_2_182)"/>
<defs>
<linearGradient id="paint0_linear_2_182" x1="0.343567" y1="10.3816" x2="38.7773" y2="10.3816" gradientUnits="userSpaceOnUse">
<stop stop-color="white"/>
<stop offset="1" stop-color="#E72F7C"/>
</linearGradient>
</defs>
</svg>
