<svg width="22" height="21" viewBox="0 0 22 21" fill="none" xmlns="http://www.w3.org/2000/svg">
<path d="M17.4341 0.138951H4.57692C2.44746 0.138951 0.719778 1.86663 0.719778 3.99609V16.8532C0.719778 18.9827 2.44746 20.7104 4.57692 20.7104H11.7019V12.7416H9.02335V9.63449H11.7019V7.34431C11.7019 4.69252 13.3358 3.24609 15.7064 3.24609C16.8314 3.24609 17.8091 3.32645 18.0903 3.36663V6.13895L16.4564 6.15234C15.1573 6.15234 14.9162 6.75502 14.9162 7.65234V9.63449H17.9832L17.5814 12.7416H14.9162V20.7104H17.4341C19.5635 20.7104 21.2912 18.9827 21.2912 16.8532V3.99609C21.2912 1.86663 19.5635 0.138951 17.4341 0.138951Z" fill="url(#paint0_linear_2_181)"/>
<defs>
<linearGradient id="paint0_linear_2_181" x1="0.70047" y1="10.3816" x2="39.1342" y2="10.3816" gradientUnits="userSpaceOnUse">
<stop stop-color="white"/>
<stop offset="1" stop-color="#E72F7C"/>
</linearGradient>
</defs>
</svg>
