<svg width="41" height="40" viewBox="0 0 41 40" fill="none" xmlns="http://www.w3.org/2000/svg">
<path d="M15.5312 24.9688C16.9062 26.3438 18.5625 27.0312 20.5 27.0312C22.4375 27.0312 24.0938 26.3438 25.4688 24.9688C26.8438 23.5938 27.5312 21.9375 27.5312 20C27.5312 18.0625 26.8438 16.4062 25.4688 15.0312C24.0938 13.6562 22.4375 12.9688 20.5 12.9688C18.5625 12.9688 16.9062 13.6562 15.5312 15.0312C14.1562 16.4062 13.4688 18.0625 13.4688 20C13.4688 21.9375 14.1562 23.5938 15.5312 24.9688ZM35.4062 21.9688L39.625 25.25C40.0625 25.5625 40.125 26 39.8125 26.5625L35.7812 33.5C35.5312 33.9375 35.125 34.0625 34.5625 33.875L29.5938 31.9062C28.2812 32.8438 27.1562 33.5 26.2188 33.875L25.4688 39.125C25.3438 39.6875 25.0312 39.9688 24.5312 39.9688H16.4688C15.9688 39.9688 15.6562 39.6875 15.5312 39.125L14.7812 33.875C13.5938 33.375 12.4688 32.7188 11.4062 31.9062L6.4375 33.875C5.875 34.0625 5.46875 33.9375 5.21875 33.5L1.1875 26.5625C0.875 26 0.9375 25.5625 1.375 25.25L5.59375 21.9688C5.53125 21.5312 5.5 20.875 5.5 20C5.5 19.125 5.53125 18.4688 5.59375 18.0312L1.375 14.75C0.9375 14.4375 0.875 14 1.1875 13.4375L5.21875 6.5C5.46875 6.0625 5.875 5.9375 6.4375 6.125L11.4062 8.09375C12.7188 7.15625 13.8438 6.5 14.7812 6.125L15.5312 0.875C15.6562 0.3125 15.9688 0.03125 16.4688 0.03125H24.5312C25.0312 0.03125 25.3438 0.3125 25.4688 0.875L26.2188 6.125C27.4062 6.625 28.5312 7.28125 29.5938 8.09375L34.5625 6.125C35.125 5.9375 35.5312 6.0625 35.7812 6.5L39.8125 13.4375C40.125 14 40.0625 14.4375 39.625 14.75L35.4062 18.0312C35.4688 18.4688 35.5 19.125 35.5 20C35.5 20.875 35.4688 21.5312 35.4062 21.9688Z" fill="white"/>
</svg>
