<svg width="40" height="38" viewBox="0 0 40 38" fill="none" xmlns="http://www.w3.org/2000/svg">
<path d="M19.1033 0.816986C19.4701 0.0737402 20.5299 0.0737402 20.8967 0.816986L26.233 11.6294C26.3786 11.9245 26.6602 12.1291 26.9859 12.1764L38.9181 13.9103C39.7383 14.0294 40.0658 15.0374 39.4723 15.616L30.8381 24.0322C30.6024 24.262 30.4949 24.593 30.5505 24.9174L32.5888 36.8013C32.7289 37.6182 31.8714 38.2412 31.1378 37.8555L20.4653 32.2446C20.174 32.0915 19.826 32.0915 19.5347 32.2446L8.8622 37.8555C8.12857 38.2412 7.27114 37.6182 7.41125 36.8013L9.44951 24.9174C9.50514 24.593 9.3976 24.262 9.16191 24.0322L0.527707 15.616C-0.06581 15.0374 0.2617 14.0294 1.08192 13.9103L13.0141 12.1764C13.3398 12.1291 13.6214 11.9245 13.767 11.6294L19.1033 0.816986Z" fill="white"/>
</svg>
