<svg width="136" height="128" viewBox="0 0 136 128" fill="none" xmlns="http://www.w3.org/2000/svg">
<g clip-path="url(#clip0_2_39)">
<path d="M68.1255 123.977C101.064 123.977 127.767 97.4092 127.767 64.636C127.767 31.8627 101.064 5.29474 68.1255 5.29474C35.1866 5.29474 8.4843 31.8627 8.4843 64.636C8.4843 97.4092 35.1866 123.977 68.1255 123.977Z" fill="white"/>
<path d="M97.8792 21.8783C85.9978 13.9861 71.7067 11.1556 57.6833 13.9195C43.6599 16.7167 31.5442 24.7421 23.6122 36.5971C15.6801 48.452 12.8353 62.6379 15.6132 76.6241C18.4245 90.577 26.4905 102.632 38.4053 110.524C50.3202 118.416 64.5778 121.247 78.6347 118.483C92.6581 115.685 104.774 107.66 112.706 95.8051C120.638 83.9502 123.483 69.7642 120.705 55.8114C117.893 41.8585 109.828 29.8038 97.9127 21.9116L97.8792 21.8783Z" fill="#E72F7C"/>
<path d="M68.159 115.619C95.5711 115.619 117.793 93.5087 117.793 66.2344C117.793 38.9601 95.5711 16.85 68.159 16.85C40.7468 16.85 18.5249 38.9601 18.5249 66.2344C18.5249 93.5087 40.7468 115.619 68.159 115.619Z" fill="white"/>
<path d="M102.13 15.5512C88.5414 6.52684 72.2087 3.29671 56.1772 6.46024C40.1457 9.62378 26.2896 18.848 17.2196 32.3679C8.14962 45.8879 4.90315 62.1385 8.08268 78.0893C11.2622 94.0402 20.533 107.793 34.1213 116.851C47.7096 125.875 64.0423 129.105 80.0738 125.942C96.1053 122.778 109.928 113.554 119.031 100.034C128.101 86.5143 131.348 70.2637 128.168 54.3129C124.989 38.362 115.718 24.5756 102.13 15.5512ZM115.852 97.903C107.351 110.59 94.365 119.215 79.3375 122.179C64.3101 125.143 49.0149 122.146 36.2633 113.654C23.5117 105.196 14.8434 92.2753 11.8646 77.3234C8.88593 62.3716 11.8981 47.1533 20.4326 34.4659C28.9337 21.7784 41.9195 13.1536 56.947 10.1899C71.9744 7.22615 87.2696 10.2232 100.021 18.7148C112.773 27.1731 121.441 40.0936 124.42 55.0455C127.399 69.9973 124.386 85.2156 115.852 97.903Z" fill="#E72F7C"/>
<path d="M103.167 42.9575C103.167 42.9575 103.167 42.9575 103.167 42.9242C100.122 38.4286 96.2392 34.5658 91.7879 31.5687C91.721 31.5021 91.654 31.4355 91.5536 31.4022C91.4867 31.3356 91.3863 31.3023 91.3193 31.269C86.8345 28.3386 81.7808 26.2407 76.4258 25.1751C76.4258 25.1751 76.4258 25.1751 76.3923 25.1751C76.3923 25.1751 76.3923 25.1751 76.3588 25.1751C71.1042 24.1428 65.5484 24.0762 59.9926 25.1751C54.4034 26.274 49.3161 28.4385 44.8648 31.4022C44.8648 31.4022 44.8648 31.4022 44.8313 31.4022C40.313 34.4326 36.4307 38.2954 33.4185 42.7244C33.3516 42.791 33.2846 42.8576 33.2511 42.9575C33.1842 43.0241 33.1507 43.124 33.1173 43.1906C30.172 47.6528 28.0635 52.6812 26.9925 58.0092C26.9925 58.0092 26.9925 58.0092 26.9925 58.0425C26.9925 58.0425 26.9925 58.0425 26.9925 58.0758C25.955 63.304 25.888 68.8319 26.9925 74.3597C28.097 79.9209 30.2724 84.9825 33.2511 89.4115C33.2511 89.4115 33.2511 89.4115 33.2511 89.4448C36.2968 93.9403 40.1792 97.8032 44.6305 100.8C44.6974 100.867 44.7644 100.933 44.8648 100.967C44.9317 101.033 45.0321 101.067 45.0991 101.1C49.5839 104.03 54.6376 106.128 59.9926 107.194C59.9926 107.194 59.9926 107.194 60.0261 107.194C60.0261 107.194 60.0261 107.194 60.0596 107.194C65.3142 108.226 70.87 108.293 76.4258 107.194C82.015 106.095 87.1023 103.93 91.5536 100.967C91.5536 100.967 91.5536 100.967 91.5871 100.967C96.1054 97.9364 99.9877 94.0735 103 89.6446C103.067 89.578 103.134 89.5114 103.167 89.4115C103.234 89.3449 103.268 89.245 103.301 89.1784C106.246 84.7161 108.355 79.6878 109.426 74.3597C109.426 74.3597 109.426 74.3597 109.426 74.3264C110.463 69.0983 110.53 63.5704 109.426 58.0425C108.321 52.4814 106.146 47.4197 103.167 42.9908V42.9575ZM105.979 71.729L94.6997 69.4979C94.9674 67.3333 94.9674 65.1022 94.6997 62.8711L105.979 60.64C106.548 64.4029 106.514 68.1325 105.979 71.729ZM90.9512 96.7376L84.5587 87.2137C86.3325 85.8483 87.9055 84.2499 89.2777 82.5183L98.8498 88.8787C96.6409 91.8424 93.9968 94.5064 90.9846 96.7376H90.9512ZM37.4347 88.912L47.0068 82.5516C48.379 84.3165 49.9855 85.8816 51.7259 87.247L45.3333 96.7709C42.3546 94.573 39.6771 91.9423 37.4347 88.9453V88.912ZM30.2724 60.64L41.5514 62.8711C41.2836 65.0356 41.2836 67.2667 41.5514 69.4979L30.2724 71.729C29.7035 67.966 29.7369 64.2364 30.2724 60.64ZM35.3262 46.6871L44.8983 53.0475C43.7938 54.9789 42.9236 57.0102 42.3546 59.1747L31.0757 56.9436C31.9793 53.3139 33.452 49.8839 35.3597 46.6871H35.3262ZM45.2999 35.6647L51.6924 45.1886C49.9186 46.5539 48.3455 48.1523 46.9733 49.8839L37.4013 43.5236C39.6102 40.5598 42.2542 37.8958 45.2664 35.6647H45.2999ZM87.7716 33.5335L81.3791 43.0574C79.4379 41.9585 77.3964 41.0926 75.2209 40.5265L77.4633 29.3043C81.1114 30.2367 84.5587 31.6686 87.7716 33.5668V33.5335ZM98.8498 43.4903L89.2777 49.8506C87.9055 48.0857 86.299 46.5206 84.5587 45.1553L90.9512 35.6314C93.9299 37.8292 96.6074 40.4599 98.8498 43.457V43.4903ZM72.6103 88.6123C60.1934 91.0765 48.0778 83.0178 45.6011 70.6634C43.1244 58.3089 51.2238 46.2542 63.6407 43.79C76.0576 41.3258 88.1733 49.3844 90.65 61.7389C93.1266 74.0933 85.0272 86.148 72.6103 88.6123ZM71.4724 39.7606C69.2969 39.4942 67.0545 39.4942 64.8121 39.7606L62.5697 28.5384C66.3517 27.9723 70.1002 28.0056 73.7148 28.5384L71.4724 39.7606ZM61.0302 40.4932C58.8212 41.0926 56.7796 41.9585 54.8719 43.0241L48.4794 33.5002C51.6255 31.6353 55.0727 30.1701 58.7878 29.2377L61.0302 40.4599V40.4932ZM31.0422 75.4919L42.3212 73.2608C42.9236 75.4586 43.7938 77.49 44.8648 79.3881L35.2927 85.7484C33.4185 82.6182 31.9459 79.1883 31.0087 75.4919H31.0422ZM64.8121 92.6416C66.9876 92.908 69.23 92.908 71.4724 92.6416L73.7148 103.864C69.9328 104.43 66.1843 104.397 62.5697 103.864L64.8121 92.6416ZM93.9634 59.1414C93.3609 56.9436 92.4907 54.9123 91.4197 53.0142L100.992 46.6538C102.866 49.784 104.339 53.214 105.276 56.9103L93.9968 59.1414H93.9634Z" fill="#E72F7C"/>
<path d="M86.9349 63.0376C86.9349 63.0376 86.9349 62.971 86.9349 62.9377C86.9349 62.9377 86.9349 62.8711 86.9349 62.8378C86.9349 62.8378 86.9349 62.7712 86.9349 62.7379C86.9349 62.7379 86.9349 62.6713 86.9349 62.638C86.9349 62.638 86.9349 62.5714 86.9349 62.5381C86.9349 62.5381 86.9349 62.4715 86.9349 62.4382C86.9349 62.4382 86.9349 62.3716 86.9349 62.3383C86.9349 62.3383 86.9349 62.2717 86.9349 62.2384C86.9349 62.2384 86.9349 62.1718 86.9349 62.1385V62.0719C86.9349 62.0719 86.9349 62.0053 86.9014 62.0053C86.9014 62.0053 86.9014 61.9387 86.868 61.9054C86.868 61.9054 86.868 61.8721 86.8345 61.8388C86.8345 61.8388 86.801 61.7722 86.7676 61.7389C86.7676 61.7389 86.7676 61.7389 86.7341 61.7056C86.7341 61.7056 86.7006 61.639 86.6672 61.6057C86.6672 61.6057 86.6337 61.5724 86.6002 61.5391C86.6002 61.5391 86.5668 61.5058 86.5333 61.4725C86.5333 61.4725 86.4998 61.4392 86.4664 61.4059C86.4664 61.4059 86.4329 61.3726 86.3994 61.3393C86.3994 61.3393 86.3659 61.306 86.3325 61.2727C86.3325 61.2727 86.2655 61.2394 86.2655 61.2061C86.2655 61.2061 86.1986 61.2061 86.1986 61.1728C86.1986 61.1728 86.1317 61.1728 86.1317 61.1395C86.1317 61.1395 86.0647 61.1395 86.0647 61.1062C86.0647 61.1062 85.9978 61.1062 85.9643 61.0729C85.9643 61.0729 85.8974 61.0729 85.8639 61.0729C85.8639 61.0729 85.797 61.0729 85.7635 61.0729C85.7635 61.0729 85.6966 61.0729 85.6631 61.0729C85.6631 61.0729 85.6296 61.0729 85.5962 61.0729L72.7442 58.3755L66.5859 48.4853C66.5859 48.4853 66.5859 48.4853 66.5525 48.452C66.5525 48.452 66.519 48.3854 66.4855 48.3521C66.4855 48.3521 66.4521 48.2855 66.4186 48.2855C66.4186 48.2855 66.3851 48.2522 66.3517 48.2189C66.3517 48.2189 66.3182 48.1856 66.2847 48.1523C66.2847 48.1523 66.2513 48.119 66.2178 48.0857C66.2178 48.0857 66.1509 48.0524 66.1509 48.0191C66.1509 48.0191 66.1174 47.9858 66.0839 47.9525C66.0839 47.9525 66.017 47.9192 66.017 47.8859L65.95 47.8526C65.95 47.8526 65.8831 47.8526 65.8831 47.8193C65.8831 47.8193 65.8162 47.8193 65.7827 47.786C65.7827 47.786 65.7158 47.786 65.7158 47.7527C65.7158 47.7527 65.6488 47.7527 65.6154 47.7194C65.6154 47.7194 65.5484 47.7194 65.515 47.7194C65.515 47.7194 65.448 47.7194 65.4145 47.7194C65.3811 47.7194 65.3476 47.7194 65.3141 47.7194C65.3141 47.7194 65.2807 47.7194 65.2472 47.7194C65.2137 47.7194 65.1803 47.7194 65.1468 47.7194H65.0799C65.0464 47.7194 65.0129 47.7194 64.9795 47.7194C64.9795 47.7194 64.9125 47.7194 64.879 47.7194C64.879 47.7194 64.8121 47.7194 64.7786 47.7194C64.7786 47.7194 64.7117 47.7194 64.6782 47.7194H64.6113C64.5778 47.7194 64.5444 47.7194 64.5109 47.7194H64.444C64.4105 47.7194 64.377 47.7194 64.3435 47.7194C64.3435 47.7194 64.3101 47.7194 64.2766 47.7194C64.2431 47.7194 64.2097 47.7194 64.1762 47.7527C64.1762 47.7527 64.1427 47.7527 64.1093 47.7527C64.0758 47.7527 64.0423 47.786 64.0089 47.8193C64.0089 47.8193 64.0089 47.8193 63.9754 47.8193C63.9754 47.8193 63.9085 47.8526 63.875 47.8859C63.875 47.8859 63.8415 47.9192 63.808 47.9525C63.808 47.9525 63.7746 47.9858 63.7411 48.0191C63.7411 48.0191 63.7076 48.0524 63.6742 48.0857C63.6742 48.0857 63.6407 48.119 63.6072 48.1523C63.6072 48.1523 63.5738 48.1856 63.5403 48.2189C63.5403 48.2189 63.5068 48.2522 63.4734 48.2855C63.4734 48.2855 63.4399 48.3188 63.4064 48.3521C63.4064 48.3521 63.373 48.4187 63.3395 48.4187C63.3395 48.4187 63.3395 48.452 63.306 48.4853C63.306 48.4853 63.306 48.5519 63.2725 48.5852C63.2725 48.5852 63.2725 48.6518 63.2391 48.6518C63.2391 48.6518 63.2391 48.7184 63.2056 48.7517C63.2056 48.7517 63.2056 48.8183 63.2056 48.8516C63.2056 48.8516 63.2056 48.9182 63.2056 48.9515C63.2056 48.9848 63.2056 49.0181 63.2056 49.0514C63.2056 49.0514 63.2056 49.0847 63.2056 49.118L61.1975 61.4059L50.5879 67.966C50.5879 67.966 50.5879 67.966 50.5544 67.966C50.5544 67.966 50.4875 67.9993 50.454 68.0326C50.454 68.0326 50.4206 68.0659 50.3871 68.0992C50.3871 68.0992 50.3536 68.1325 50.3202 68.1658C50.3202 68.1658 50.2867 68.1991 50.2532 68.2324C50.2532 68.2324 50.2198 68.2657 50.1863 68.299C50.1863 68.299 50.1528 68.3323 50.1194 68.3657C50.1194 68.3657 50.0859 68.3989 50.0524 68.4322C50.0524 68.4322 50.019 68.4988 49.9855 68.4988C49.9855 68.4988 49.952 68.5655 49.9185 68.5655C49.9185 68.5655 49.9185 68.5988 49.8851 68.6321C49.8851 68.6321 49.8851 68.6986 49.8516 68.7319C49.8516 68.7319 49.8516 68.7986 49.8181 68.7986C49.8181 68.7986 49.8181 68.8652 49.7847 68.8985C49.7847 68.8985 49.7847 68.9651 49.7847 68.9984C49.7847 68.9984 49.7847 69.065 49.7847 69.0983C49.7847 69.1316 49.7847 69.1649 49.7847 69.1982C49.7847 69.1982 49.7847 69.2315 49.7847 69.2648C49.7847 69.2981 49.7847 69.3314 49.7847 69.3647V69.4313C49.7847 69.4646 49.7847 69.4979 49.7847 69.5312C49.7847 69.5312 49.7847 69.5978 49.7847 69.6311C49.7847 69.6311 49.7847 69.6977 49.7847 69.731C49.7847 69.731 49.7847 69.7976 49.7847 69.8309C49.7847 69.8309 49.7847 69.8975 49.7847 69.9308C49.7847 69.9308 49.7847 69.9974 49.7847 70.0307C49.7847 70.0307 49.7847 70.0973 49.7847 70.1306C49.7847 70.1306 49.7847 70.1972 49.7847 70.2305V70.2971C49.7847 70.2971 49.7847 70.3637 49.8181 70.397C49.8181 70.397 49.8181 70.4303 49.8516 70.4636C49.8516 70.4636 49.8851 70.5302 49.9185 70.5635C49.952 70.6301 50.0189 70.6967 50.0524 70.7633C50.1194 70.8299 50.1863 70.8965 50.2198 70.9298C50.2198 70.9298 50.2198 70.9298 50.2532 70.9631C50.3202 71.0297 50.3871 71.063 50.454 71.0963C50.521 71.1296 50.5879 71.1629 50.6549 71.1962C50.6549 71.1962 50.6549 71.1962 50.6883 71.1962C50.7553 71.1962 50.8557 71.2628 50.9226 71.2628C50.9561 71.2628 51.023 71.2628 51.0565 71.2628L62.6032 73.1276L70.0332 83.9169C70.0667 83.9835 70.1336 84.0501 70.1671 84.0834C70.234 84.15 70.2675 84.1833 70.3344 84.2499C70.3344 84.2499 70.3344 84.2499 70.3679 84.2832C70.4349 84.3165 70.4683 84.3831 70.5353 84.4164C70.6022 84.4497 70.6691 84.483 70.7695 84.5163C70.7695 84.5163 70.803 84.5163 70.8365 84.5163C70.9034 84.5163 70.9703 84.5496 71.0373 84.5829C71.0373 84.5829 71.0708 84.5829 71.1042 84.5829C71.1712 84.5829 71.2381 84.5829 71.305 84.5829C71.305 84.5829 71.305 84.5829 71.3385 84.5829C71.4054 84.5829 71.4724 84.5829 71.5393 84.5829C71.5393 84.5829 71.5728 84.5829 71.6063 84.5829C71.6732 84.5829 71.7736 84.5829 71.8405 84.5829C71.8405 84.5829 72.0079 84.5496 72.0748 84.5163C72.0748 84.5163 72.1083 84.5163 72.1417 84.5163C72.2087 84.5163 72.2756 84.4497 72.3426 84.4164C72.3426 84.4164 72.3426 84.4164 72.376 84.4164C72.443 84.4164 72.5099 84.3498 72.5434 84.3165C72.5434 84.3165 72.5434 84.3165 72.5768 84.2832C72.6438 84.2499 72.6772 84.2166 72.7442 84.15C72.7442 84.15 72.7442 84.15 72.7777 84.1167C72.8446 84.0501 72.8781 83.9835 72.945 83.9502C72.9785 83.8836 73.0119 83.817 73.0789 83.7837C73.0789 83.7837 73.0789 83.7504 73.0789 83.7171C73.1123 83.6505 73.1458 83.5839 73.1793 83.484C73.1793 83.484 73.1793 83.484 73.1793 83.4507C73.1793 83.3841 73.2127 83.3175 73.2462 83.2176L75.7898 71.1962L85.9643 64.2364C85.9643 64.2364 85.9643 64.2364 85.9978 64.2031C86.0647 64.1698 86.0982 64.1365 86.1651 64.0699C86.1651 64.0699 86.1651 64.0699 86.1986 64.0366C86.2655 63.97 86.299 63.9034 86.3659 63.8701C86.3994 63.8035 86.4329 63.7369 86.4998 63.7036C86.4998 63.7036 86.4998 63.6703 86.4998 63.637C86.5333 63.5704 86.5668 63.5038 86.6002 63.4039C86.6002 63.4039 86.6002 63.4039 86.6002 63.3706C86.6002 63.304 86.6337 63.2374 86.6672 63.1375C86.6672 63.1042 86.6672 63.0709 86.6672 63.0376V62.971L86.9349 63.0376ZM70.5687 78.2559L67.6569 74.06C67.6569 74.06 67.7239 74.06 67.7574 74.06C67.9582 74.0267 68.159 73.9268 68.3598 73.8269C68.7949 73.8269 69.1965 73.7603 69.6316 73.6937C70.3679 73.5605 71.0373 73.2941 71.6732 72.9611L70.5353 78.2892L70.5687 78.2559ZM64.377 66.9337C63.9754 64.8691 65.3141 62.8711 67.3892 62.4715C69.4643 62.0719 71.4724 63.4039 71.874 65.4685C72.2756 67.5331 70.9369 69.5312 68.8618 69.9308C66.7868 70.3304 64.7786 68.9984 64.377 66.9337ZM68.2594 58.5753C67.7239 58.5753 67.1884 58.6086 66.6529 58.7085C66.2178 58.8084 65.8162 58.9083 65.4145 59.0748C65.3141 59.0748 65.2137 59.0748 65.1133 59.0748L65.8162 54.7125L68.2259 58.5753H68.2594ZM60.4946 66.4009C60.4946 66.8338 60.5616 67.2334 60.6285 67.6663C60.7289 68.1991 60.8963 68.732 61.0971 69.1982L56.5788 68.4655L60.3608 66.1345C60.3608 66.1345 60.4277 66.301 60.4946 66.4009ZM75.2878 63.4705C75.3213 63.2374 75.2878 62.971 75.2543 62.7379L80.2746 63.8035L75.7564 66.8671C75.8233 66.1678 75.7564 65.4352 75.656 64.7026C75.5556 64.2697 75.4552 63.8701 75.2878 63.4705Z" fill="#E72F7C"/>
<path d="M68.1255 66.0346L117.927 23.1438C106.046 8.9911 88.1733 0 68.1925 0C48.2116 0 30.4398 8.9245 18.5584 23.0106L68.159 66.0346H68.1255Z" fill="#E72F7C"/>
<path d="M135.398 86.9139H0.886902L8.41736 65.968L0.886902 45.1553H135.398L127.733 65.968L135.398 86.9139Z" fill="white" stroke="#E72F7C" stroke-width="0.25" stroke-miterlimit="10"/>
<path d="M40.5473 74.493C41.5179 75.0924 42.8566 75.7584 44.2289 75.8583L42.4215 78.9552C40.5473 78.7554 39.1751 77.9229 37.7025 76.8906C35.5939 78.2226 33.0838 78.9552 30.4732 78.9552C23.0432 78.9552 17.2866 73.1942 17.2866 65.8349C17.2866 58.4755 23.4783 53.2473 30.5067 53.2473C37.5351 53.2473 43.6934 58.9084 43.6934 66.2012C43.6934 69.3647 42.4885 72.2285 40.5473 74.4597V74.493ZM31.4438 69.1982C33.6193 69.3314 34.456 70.064 37.6355 72.395C39.1751 70.7633 40.1791 68.5322 40.1791 66.0347C40.1791 60.6733 35.7278 56.8771 30.5067 56.8771C25.2856 56.8771 20.8342 60.7732 20.8342 66.2678C20.8342 71.7623 25.4195 75.3921 30.5402 75.3921C31.9458 75.3921 33.3181 75.0924 34.5564 74.5262C32.4813 72.9944 31.5108 72.3617 29.6365 72.2618L31.4438 69.1649V69.1982Z" fill="#E72F7C" stroke="#E72F7C" stroke-width="0.25" stroke-miterlimit="10"/>
<path d="M52.7968 68.9318V53.9799H56.3445V68.9318C56.3445 73.1276 59.0555 75.4254 63.808 75.4254C68.5606 75.4254 71.2716 73.1276 71.2716 68.9318V53.9799H74.8192V68.9318C74.8192 75.2922 70.7361 78.9885 63.808 78.9885C56.88 78.9885 52.7968 75.2922 52.7968 68.9318Z" fill="#E72F7C" stroke="#E72F7C" stroke-width="0.25" stroke-miterlimit="10"/>
<path d="M85.0607 78.4224V53.9799H88.5749V78.4224H85.0607Z" fill="#E72F7C" stroke="#E72F7C" stroke-width="0.25" stroke-miterlimit="10"/>
<path d="M97.1429 78.4224V74.826L110.965 57.6097H97.9126V54.0132H115.919V57.4765L101.628 74.8593H117.124V78.4224H97.1429Z" fill="#E72F7C" stroke="#E72F7C" stroke-width="0.25" stroke-miterlimit="10"/>
<path d="M41.7522 16.9166L41.384 16.1507C41.1163 15.6844 41.1163 15.2182 41.5514 14.9518C41.9865 14.6854 42.3881 14.8852 42.6558 15.3514L46.3039 21.2123C46.6386 21.7451 46.5717 22.1447 46.1031 22.4444C45.5676 22.7774 45.1994 22.6775 44.8313 22.1114L43.1913 19.4474C42.0869 17.6825 40.815 17.3495 39.5098 18.182C38.2714 18.9479 37.8698 20.2799 38.9743 22.0448L47.2076 35.2651C47.9439 36.4639 49.4165 36.8302 50.5879 36.0976C51.7928 35.365 52.1609 33.8664 51.4246 32.6676L49.7177 29.937C49.383 29.4375 49.45 29.0712 49.8851 28.7049C50.454 28.4052 50.8557 28.5051 51.1903 29.0379L52.8972 31.7685C54.1356 33.7665 53.667 36.2308 51.4916 37.5628C49.2492 38.9281 46.8729 38.2288 45.6345 36.2308L37.1335 22.5443C35.8952 20.5796 35.9956 18.3152 38.3384 16.85C39.5767 16.0841 40.8485 16.2173 41.6852 16.85H41.7522V16.9166Z" fill="white" stroke="white" stroke-width="0.25" stroke-miterlimit="10"/>
<path d="M56.2106 11.7883L61.0636 31.6353L62.3354 31.3356C63.0048 31.1691 63.3395 31.4022 63.5068 32.0349V31.8351C63.6072 32.5011 63.4064 32.8341 62.7705 33.0006L58.4196 34.0662C57.7502 34.2327 57.4155 33.9996 57.2482 33.3669V33.5667C57.1478 32.9007 57.3486 32.5677 57.9845 32.4012L59.2563 32.1015L54.4033 12.2545L53.1315 12.5542C52.4622 12.7207 52.1275 12.4876 51.9601 11.8549V12.0547C51.8597 11.3887 52.0605 11.0557 52.6964 10.8892L57.0474 9.82358C57.7167 9.65708 58.0514 9.89018 58.2188 10.5229V10.3231C58.3192 10.9891 58.1184 11.3221 57.4825 11.4886L56.2106 11.7883Z" fill="white" stroke="white" stroke-width="0.25" stroke-miterlimit="10"/>
<path d="M73.4805 31.269C74.1164 31.3356 74.4176 31.6353 74.3507 32.268C74.2837 32.8008 73.9156 33.0339 73.3131 32.9673L68.9287 32.5677C68.2928 32.5011 67.9916 32.268 68.0586 31.7019C68.1255 31.0692 68.4267 30.8028 69.0961 30.8694L70.4014 31.0026L72.3091 10.6561L68.6945 10.3231L68.159 16.0841C68.092 16.7501 67.7908 17.0165 67.1214 16.9499C66.4855 16.8833 66.2512 16.5836 66.3182 15.9176L66.9206 9.39069C66.9876 8.72468 67.2888 8.45828 67.9581 8.52488L78.7351 9.52389C79.4044 9.59049 79.6722 9.89019 79.6053 10.5562L79.0028 17.0831C78.9359 17.7491 78.6347 18.0155 78.0322 17.9489C77.3628 17.8823 77.0951 17.5826 77.162 16.9166L77.6975 11.1556L74.0829 10.8226L72.1752 31.1691L73.4805 31.3023V31.269Z" fill="white" stroke="white" stroke-width="0.25" stroke-miterlimit="10"/>
<path d="M100.423 18.515C100.925 18.7814 100.992 19.181 100.724 19.7138C100.456 20.2133 100.021 20.2466 99.4857 19.9469L98.5151 19.4141L88.8091 28.5051L85.0607 35.3983L86.1986 36.031C86.7676 36.3307 86.9349 36.697 86.6002 37.2964C86.3325 37.7959 85.8974 37.8292 85.3619 37.5295L81.5799 35.4649C80.8436 35.0653 80.7097 34.699 81.0109 34.1662C81.2787 33.6667 81.6803 33.6001 82.2493 33.8998L83.3872 34.5325L87.1357 27.6393L89.512 14.5855L88.5414 14.0527C87.939 13.7197 87.8051 13.3867 88.1398 12.8206C88.4075 12.3211 88.8091 12.2545 89.3781 12.5542L92.7584 14.3857C93.227 14.6854 93.3609 15.0184 93.0931 15.518C92.7919 16.0841 92.3903 16.1507 91.8213 15.851L91.085 15.4514L88.8761 26.3406L96.9086 18.6149L96.1723 18.2153C95.6033 17.9156 95.4359 17.5493 95.7037 17.0498C96.0049 16.4837 96.4065 16.3838 96.9755 16.6835L100.356 18.515H100.423Z" fill="white" stroke="white" stroke-width="0.25" stroke-miterlimit="10"/>
</g>
<defs>
<clipPath id="clip0_2_39">
<rect width="135.716" height="127.141" fill="white" transform="translate(0.28447)"/>
</clipPath>
</defs>
</svg>
